<!-- Instagram: -->
<svg
  width="20"
  height="20"
  viewBox="0 0 24 24"
  fill="currentColor"
  xmlns="http://www.w3.org/2000/svg"
>
  <path
    d="M12 0C5.383 0 0 5.383 0 12s5.383 12 12 12 12-5.383 12-12S18.617 0 12 0zm0 22c-5.149 0-9.352-4.202-9.352-9.352V9.351C2.648 4.202 6.85 0 12 0s9.352 4.202 9.352 9.351v3.297C21.352 17.798 17.15 22 12 22zm1.687-12.207a.998.998 0 00-.653-.653c-.253-.076-.555-.111-.889-.111s-.636.035-.89.111a.998.998 0 00-.653.653 8.77 8.77 0 01-.111.889c-.076.253-.111.555-.111.889s.035.636.111.889c.076.253.207.468.384.645.176.177.39.308.645.384.253.076.555.111.89.111s.636-.035.889-.111c.253-.076.468-.207.645-.384.177-.177.308-.39.384-.645.076-.253.111-.555.111-.889s-.035-.636-.111-.889c-.076-.253-.207-.468-.384-.645zm-2.318 5.447c0 .497-.405.902-.902.902-.497 0-.902-.405-.902-.902s.405-.902.902-.902c.497 0 .902.405.902.902zm4.451 0c0 .497-.405.902-.902.902s-.902-.405-.902-.902.405-.902.902-.902.902.405.902.902zm-4.945-5.465h1.406c.175 0 .318-.143.318-.318v-1.405a.317.317 0 00-.318-.318h-1.405a.317.317 0 00-.318.318v1.405c0 .175.143.318.318.318zm5.465 0h1.406c.175 0 .318-.143.318-.318v-1.405a.317.317 0 00-.318-.318h-1.406a.317.317 0 00-.318.318v1.405c0 .175.143.318.318.318zm-7.548 5.166c-.739 0-1.338-.599-1.338-1.338s.599-1.338 1.338-1.338c.739 0 1.338.599 1.338 1.338s-.6 1.338-1.338 1.338z"
  />
</svg>
<!-- Facebook: -->
<svg
  width="20"
  height="20"
  viewBox="0 0 24 24"
  fill="currentColor"
  xmlns="http://www.w3.org/2000/svg"
>
  <path
    d="M22 2H2a2 2 0 00-2 2v18a2 2 0 002 2h11.45v-7.03h-3.34V11.5h3.34V9.163c0-3.292 2.01-5.087 4.947-5.087 1.397 0 2.595.104 2.948.15v3.44h-2.034c-1.587 0-1.89.755-1.89 1.866V11.5h3.783l-.494 3.467h-3.289V24H22a2 2 0 002-2V4a2 2 0 00-2-2z"
  />
</svg>
<!-- Twitter: -->
<svg
  width="20"
  height="20"
  viewBox="0 0 24 24"
  fill="currentColor"
  xmlns="http://www.w3.org/2000/svg"
>
  <path
    d="M22.46 5.65a9 9 0 01-2.58.703 4.51 4.51 0 001.984-2.496 9.03 9.03 0 01-2.866 1.095 4.513 4.513 0 00-7.696 4.116 12.81 12.81 0 01-9.3-4.715 4.504 4.504 0 001.396 6.013 4.49 4.49 0 01-2.043-.563v.057a4.503 4.503 0 003.62 4.42 4.525 4.525 0 01-2.035.077 4.505 4.505 0 004.202 3.134 9.055 9.055 0 01-5.604 1.93A9.18 9.18 0 010 18.827a12.785 12.785 0 006.918 2.028c8.3 0 12.84-6.874 12.84-12.84 0-.195-.005-.391-.014-.586a9.172 9.172 0 002.252-2.336z"
  />
</svg>

<!-- LinkedIn: -->
<svg
  width="20"
  height="20"
  viewBox="0 0 24 24"
  fill="currentColor"
  xmlns="http://www.w3.org/2000/svg"
>
  <path
    d="M3.05 2h17.9a1.05 1.05 0 011.05 1.05v17.9a1.05 1.05 0 01-1.05 1.05H3.05A1.05 1.05 0 012 20.95V3.05A1.05 1.05 0 013.05 2zM8.03 19.87H5.1V9.292h2.93v10.577H8.03zm-1.46-11.518a1.23 1.23 0 111.24-1.23 1.24 1.24 0 01-1.24 1.23zm-2.13 11.518H1.04V9.293h3.4v1.453c.454-.693 1.466-1.42 3.008-1.42 2.243 0 3.12 1.407 3.12 3.454v7.139H6.57V19.87z"
  />
</svg>
